<?xml version="1.0" standalone="no"?>
<!DOCTYPE svg PUBLIC "-//W3C//DTD SVG 20010904//EN"
 "http://www.w3.org/TR/2001/REC-SVG-20010904/DTD/svg10.dtd">
<svg version="1.0" xmlns="http://www.w3.org/2000/svg"
 width="1000.000000pt" height="1000.000000pt" viewBox="0 0 1000.000000 1000.000000"
 preserveAspectRatio="xMidYMid meet">
<metadata>
Created by potrace 1.13, written by Peter Selinger 2001-2015
</metadata>
<g transform="translate(0.000000,1000.000000) scale(0.100000,-0.100000)"
fill="#000000" stroke="none">
<path d="M0 5000 l0 -5000 5000 0 5000 0 0 5000 0 5000 -5000 0 -5000 0 0
-5000z m9453 4457 c16 -10 32 -29 37 -43 6 -16 10 -1645 10 -4404 0 -4291 0
-4379 -19 -4423 -11 -25 -30 -52 -42 -61 -22 -15 -387 -16 -4415 -16 l-4392 0
-29 24 c-16 14 -35 42 -41 64 -9 30 -12 1092 -12 4424 l0 4385 21 27 c11 14
35 30 52 35 19 6 1753 9 4417 8 4207 -2 4387 -3 4413 -20z"/>
<path d="M750 4995 l0 -4285 4275 0 4275 0 0 4285 0 4285 -4275 0 -4275 0 0
-4285z m2345 2462 c112 -37 177 -78 261 -162 75 -75 119 -148 158 -260 20 -59
20 -78 27 -1820 4 -1252 9 -1776 17 -1815 80 -385 248 -660 537 -877 l30 -23
-665 3 -665 2 -72 27 c-212 78 -342 203 -406 391 -22 62 -22 64 -27 1782 -5
1582 -7 1726 -23 1790 -10 39 -26 114 -37 167 -65 313 -217 571 -466 786 l-49
42 650 -3 650 -3 80 -27z m5445 -587 l0 -620 -60 0 c-47 0 -60 3 -60 15 0 8
-4 15 -10 15 -5 0 -10 6 -10 13 0 18 -41 36 -96 44 -24 3 -44 10 -44 14 0 5 5
9 10 9 6 0 10 7 10 15 0 9 -9 15 -25 15 -21 0 -24 -3 -17 -17 15 -29 23 -103
12 -103 -5 0 -10 -7 -10 -16 0 -33 -69 -77 -134 -87 -21 -3 -55 -17 -75 -31
-20 -14 -48 -28 -64 -31 -15 -4 -30 -11 -33 -16 -3 -5 -14 -9 -25 -9 -10 0
-19 -4 -19 -10 0 -5 -7 -10 -15 -10 -8 0 -15 -4 -15 -9 0 -5 -15 -11 -32 -15
-25 -5 -29 -9 -19 -15 11 -7 9 -10 -10 -13 -13 -2 -23 -9 -22 -16 2 -6 -6 -12
-17 -12 -11 0 -20 -7 -20 -15 0 -8 -7 -15 -16 -15 -9 0 -18 -9 -21 -20 -3 -11
-14 -20 -24 -20 -11 0 -19 -7 -19 -15 0 -8 -9 -15 -20 -15 -18 0 -25 -10 -21
-32 0 -5 -8 -8 -19 -8 -11 0 -20 -6 -20 -14 0 -8 -9 -18 -20 -21 -11 -3 -20
-12 -20 -18 0 -7 -9 -19 -20 -27 -11 -8 -20 -20 -20 -27 0 -7 -4 -13 -9 -13
-10 0 -51 -74 -51 -92 0 -6 -9 -19 -21 -29 -14 -12 -19 -24 -14 -38 4 -15 2
-21 -8 -21 -8 0 -20 -14 -27 -31 -11 -25 -11 -35 -1 -51 10 -17 9 -23 -5 -39
-9 -10 -19 -41 -22 -69 -3 -38 -9 -50 -21 -50 -24 0 -41 -20 -41 -47 0 -13 -4
-23 -10 -23 -5 0 -10 -16 -10 -35 0 -19 -4 -35 -10 -35 -5 0 -10 -6 -10 -12 0
-7 -18 -26 -40 -42 -67 -49 -52 -97 33 -110 l47 -7 0 -490 c0 -482 0 -489 -20
-489 -11 0 -20 -7 -20 -15 0 -8 -4 -15 -10 -15 -5 0 -10 -16 -10 -35 0 -21 -5
-35 -12 -36 -10 0 -10 -2 0 -6 19 -7 18 -553 -2 -553 -18 0 -26 -22 -26 -71 0
-21 -4 -39 -10 -39 -5 0 -10 -8 -10 -18 0 -30 -114 -212 -182 -292 -186 -218
-451 -366 -740 -415 -80 -14 -195 -16 -848 -13 -868 4 -824 0 -1035 103 -376
185 -615 587 -615 1035 0 138 39 336 90 454 l20 48 63 -58 c377 -349 878 -447
1341 -261 390 156 670 497 756 919 25 122 27 338 4 459 -85 448 -392 809 -814
957 -202 71 -333 82 -956 82 l-504 0 0 625 0 625 2400 0 2400 0 0 -620z"/>
<path d="M8213 6420 c2 -8 14 -16 28 -17 19 -1 20 -1 4 4 -11 3 -24 10 -28 17
-6 7 -7 6 -4 -4z"/>
</g>
</svg>
