<?xml version="1.0" standalone="no"?>
<!DOCTYPE svg PUBLIC "-//W3C//DTD SVG 20010904//EN"
 "http://www.w3.org/TR/2001/REC-SVG-20010904/DTD/svg10.dtd">
<svg version="1.0" xmlns="http://www.w3.org/2000/svg"
 width="1000.000000pt" height="1000.000000pt" viewBox="0 0 1000.000000 1000.000000"
 preserveAspectRatio="xMidYMid meet">
<metadata>
Created by potrace 1.13, written by Peter Selinger 2001-2015
</metadata>
<g transform="translate(0.000000,1000.000000) scale(0.100000,-0.100000)"
fill="#000000" stroke="none">
<path d="M0 5000 l0 -5000 5000 0 5000 0 0 5000 0 5000 -5000 0 -5000 0 0
-5000z m9453 4457 c16 -10 32 -29 37 -43 6 -16 10 -1645 10 -4404 0 -4291 0
-4379 -19 -4423 -11 -25 -30 -52 -42 -61 -22 -15 -387 -16 -4415 -16 l-4392 0
-29 24 c-16 14 -35 42 -41 64 -9 30 -12 1092 -12 4424 l0 4385 21 27 c11 14
35 30 52 35 19 6 1753 9 4417 8 4207 -2 4387 -3 4413 -20z"/>
<path d="M750 4995 l0 -4285 4275 0 4275 0 0 4285 0 4285 -4275 0 -4275 0 0
-4285z m2345 2462 c112 -37 177 -78 261 -162 75 -75 119 -148 158 -260 20 -59
20 -78 27 -1820 4 -1252 9 -1776 17 -1815 80 -385 248 -660 537 -877 l30 -23
-665 3 -665 2 -72 27 c-212 78 -342 203 -406 391 -22 62 -22 64 -27 1782 -5
1582 -7 1726 -23 1790 -10 39 -26 114 -37 167 -65 313 -217 571 -466 786 l-49
42 650 -3 650 -3 80 -27z m5445 -586 l0 -619 -67 -5 c-151 -11 -342 -66 -489
-140 -390 -197 -647 -583 -681 -1023 -3 -46 -10 -84 -14 -84 -5 0 -9 -308 -9
-684 0 -759 -1 -771 -66 -966 -131 -393 -440 -690 -834 -803 -164 -47 -205
-49 -1000 -45 -856 4 -815 0 -1025 103 -376 185 -615 587 -615 1035 0 138 39
336 90 454 l20 48 63 -58 c377 -349 878 -447 1341 -261 390 156 670 497 756
919 25 122 27 338 4 459 -85 448 -392 809 -814 957 -202 71 -333 82 -956 82
l-504 0 0 625 0 625 2400 0 2400 0 0 -619z"/>
</g>
</svg>
